  <svg
          viewBox="0 0 305 460"
          fill="none"
          xmlns="http://www.w3.org/2000/svg"
          class="w-full"
        >
          <path
            d="M304.003 229.25C304.003 234.789 302.912 240.274 300.792 245.392C298.673 250.509 295.566 255.159 291.649 259.076C287.732 262.993 283.082 266.1 277.965 268.22C272.847 270.339 267.362 271.43 261.823 271.43H77.6919C72.1527 271.43 66.6677 270.339 61.5501 268.22C56.4325 266.1 51.7826 262.993 47.8658 259.076C43.949 255.159 40.842 250.509 38.7222 245.392C36.6024 240.274 35.5114 234.789 35.5114 229.25V45.7416C35.162 39.9972 35.9917 34.2422 37.9496 28.8305C39.9074 23.4189 42.952 18.4651 46.8958 14.274C50.8397 10.083 55.5995 6.74327 60.8823 4.46045C66.1651 2.17764 71.8591 1 77.6141 1C83.369 1 89.063 2.17764 94.3458 4.46045C99.6286 6.74327 104.388 10.083 108.332 14.274C112.276 18.4651 115.321 23.4189 117.279 28.8305C119.236 34.2422 120.066 39.9972 119.717 45.7416V187.692H261.823C272.903 187.691 283.538 192.049 291.431 199.825C299.324 207.602 303.84 218.171 304.003 229.25Z"
            stroke="#009DF5"
            stroke-opacity="0.2"
            stroke-width="2"
            stroke-miterlimit="10"
          />
          <path
            d="M-148 229.252C-147.959 218.092 -143.496 207.403 -135.59 199.526C-127.685 191.649 -116.979 187.227 -105.819 187.227H77.6891C83.2674 187.144 88.8066 188.169 93.9861 190.243C99.1655 192.316 103.882 195.396 107.863 199.304C111.844 203.213 115.01 207.872 117.178 213.013C119.346 218.153 120.472 223.673 120.492 229.252V413.538C120.842 419.282 120.012 425.038 118.054 430.449C116.096 435.861 113.052 440.815 109.108 445.006C105.164 449.197 100.404 452.536 95.1213 454.819C89.8385 457.102 84.1444 458.28 78.3895 458.28C72.6346 458.28 66.9405 457.102 61.6577 454.819C56.3749 452.536 51.6151 449.197 47.6713 445.006C43.7274 440.815 40.6828 435.861 38.725 430.449C36.7672 425.038 35.9374 419.282 36.2869 413.538V271.588H-105.819C-111.372 271.588 -116.869 270.492 -121.997 268.362C-127.125 266.233 -131.782 263.112 -135.701 259.178C-139.619 255.245 -142.723 250.577 -144.834 245.441C-146.944 240.306 -148.02 234.804 -148 229.252Z"
            stroke="#009DF5"
            stroke-opacity="0.2"
            stroke-width="2"
            stroke-miterlimit="10"
          />
        </svg>