   <svg
                      height="29"
                      width="58"
                      viewBox="0 0 58 29"
                      fill="none"
                      xmlns="http://www.w3.org/2000/svg"
                    >
                      <path
                        d="M24.6069 9.76147V18.9251H22.1006V13.7853L20.4265 16.2622H19.1146L17.2741 13.7853V18.9251H14.9832V9.76147H17.2936L19.937 13.3545L22.3062 9.76147H24.6069ZM25.3314 11.837V9.76147H33.888V11.837H30.8922V18.9251H28.337V11.837H25.3314ZM43.316 9.76147V18.9251H41.2111L36.9034 13.6873V18.9251H34.6125V9.76147H36.8936L41.0153 14.8132V9.76147H43.316Z"
                        fill="#11191C"
                      />
                      <path
                        d="M29.054 28.5C21.6526 28.5 14.6721 27.1196 9.40501 24.6035C3.89312 21.9699 0.858154 18.3867 0.858154 14.5C0.858154 10.6133 3.89312 7.03007 9.40501 4.3965C14.6721 1.88042 21.6526 0.5 29.054 0.5C36.4554 0.5 43.4358 1.88042 48.7029 4.3965C54.2148 7.03007 57.2498 10.6133 57.2498 14.5C57.2498 18.3867 54.2148 21.9699 48.7029 24.6035C43.4358 27.1196 36.4554 28.5 29.054 28.5ZM29.054 2.56573C21.9463 2.56573 15.2889 3.87762 10.2959 6.26643C5.54766 8.53776 2.92389 11.465 2.92389 14.5098C2.92389 17.5545 5.53787 20.4818 10.2959 22.7434C15.2889 25.1322 21.9561 26.4441 29.054 26.4441C36.1519 26.4441 42.819 25.1322 47.812 22.7434C52.5602 20.4818 55.184 17.5448 55.184 14.5098C55.184 11.4748 52.57 8.53776 47.812 6.27622C42.819 3.87762 36.1616 2.56573 29.054 2.56573Z"
                        fill="#11191C"
                      />
                    </svg>