 <svg
                    width="158"
                    height="29"
                    viewBox="0 0 158 29"
                    fill="none"
                    xmlns="http://www.w3.org/2000/svg"
                  >
                    <path
                      d="M22.6184 3.17188L1.55948 3.17188C0.852279 3.17188 0.249847 3.77431 0.249847 4.5077L0.249847 6.89124C0.249847 7.62463 0.852279 8.22707 1.55948 8.22707L22.6184 8.22707C23.3518 8.22707 23.928 7.62463 23.9542 6.89124L23.9542 4.5339C23.9542 3.77431 23.3518 3.17188 22.6184 3.17188ZM22.6184 16.3992L1.55948 16.3992C1.21898 16.3992 0.878471 16.5302 0.642737 16.7921C0.38081 17.054 0.249846 17.3683 0.249846 17.735L0.249846 20.1185C0.249846 20.8519 0.852278 21.4544 1.55948 21.4544L22.6184 21.4544C23.3518 21.4544 23.928 20.8781 23.9542 20.1185L23.9542 17.735C23.928 16.9754 23.3518 16.3992 22.6184 16.3992ZM13.4248 22.9997L1.55948 22.9997C1.21898 22.9997 0.87847 23.1307 0.642736 23.3926C0.407002 23.6546 0.249846 23.9689 0.249846 24.3356L0.249845 26.7191C0.249845 27.4525 0.852277 28.0549 1.55948 28.0549L13.3986 28.0549C14.132 28.0549 14.7082 27.4525 14.7082 26.7453L14.7082 24.3618C14.7344 23.576 14.1582 22.9736 13.4248 22.9997ZM23.9542 9.77243L1.55948 9.77243C1.21898 9.77243 0.878472 9.9034 0.642737 10.1653C0.407003 10.4272 0.249847 10.7416 0.249847 11.1083L0.249847 13.4918C0.249846 14.2252 0.852278 14.8276 1.55948 14.8276L23.928 14.8276C24.6614 14.8276 25.2377 14.2252 25.2377 13.4918L25.2377 11.1083C25.2639 10.3749 24.6614 9.79863 23.9542 9.77243Z"
                      fill="#0A212E"
                    />
                    <path
                      d="M48.4437 8.51497C47.7889 7.83396 47.0293 7.3101 46.165 6.94341C45.3006 6.57671 44.3839 6.39336 43.4409 6.39336C42.5242 6.36716 41.6336 6.57671 40.7955 6.9696C40.2454 7.23152 39.7477 7.59822 39.3287 8.0435L39.3287 7.62441C39.3287 7.41487 39.2501 7.20533 39.1191 7.04817C38.9882 6.89102 38.7786 6.78625 38.5429 6.78625L35.6355 6.78625C35.426 6.78625 35.2164 6.86482 35.0854 7.04817C34.9283 7.20533 34.8497 7.41487 34.8759 7.62441L34.8759 27.2165C34.8759 27.4261 34.9545 27.6356 35.0854 27.7928C35.2426 27.9499 35.4259 28.0285 35.6355 28.0285L38.6215 28.0285C38.831 28.0285 39.0143 27.9499 39.1715 27.7928C39.3287 27.6618 39.4334 27.4523 39.4072 27.2165L39.4072 20.5112C39.8263 20.9827 40.3764 21.3232 40.9788 21.5327C41.7646 21.8209 42.5766 21.978 43.4147 21.978C44.3577 21.978 45.3006 21.7947 46.165 21.428C47.0293 21.0613 47.8151 20.5374 48.4699 19.8564C49.1509 19.1492 49.6748 18.311 50.0415 17.3943C50.4606 16.3728 50.6439 15.2727 50.6177 14.1726C50.6439 13.0725 50.4344 11.9724 50.0415 10.9247C49.6486 10.0603 49.1247 9.22217 48.4437 8.51497ZM45.7721 15.6132C45.6149 16.0323 45.3792 16.399 45.0649 16.7395C44.4624 17.3943 43.5981 17.761 42.7075 17.761C42.2622 17.761 41.817 17.6824 41.3979 17.4729C41.005 17.2895 40.6383 17.0538 40.324 16.7395C40.0097 16.4252 39.7739 16.0323 39.6168 15.6132C39.2763 14.7226 39.2763 13.7535 39.6168 12.863C39.7739 12.4439 40.0359 12.0772 40.324 11.7629C40.6383 11.4485 41.005 11.1866 41.3979 11.0033C41.817 10.8199 42.2622 10.7152 42.7075 10.7152C43.179 10.7152 43.5981 10.7937 44.0433 11.0033C44.4362 11.1866 44.8029 11.4224 45.0911 11.7367C45.4054 12.051 45.6149 12.4177 45.7983 12.8368C46.1126 13.7535 46.0864 14.7226 45.7721 15.6132ZM66.6214 6.81244L63.6617 6.81244C63.4521 6.81244 63.2426 6.89102 63.1116 7.04818C62.9545 7.20533 62.8759 7.41487 62.8759 7.65061L62.8759 8.0173C62.5092 7.57203 62.0377 7.23153 61.5401 6.99579C60.7281 6.6029 59.8375 6.41955 58.947 6.41955C57.0349 6.41955 55.2276 7.17914 53.8656 8.51497C53.1584 9.22217 52.6084 10.0603 52.2417 10.9771C51.8226 11.9986 51.613 13.0987 51.6392 14.225C51.613 15.3251 51.8226 16.4252 52.2417 17.4729C52.6346 18.3896 53.1584 19.2278 53.8656 19.935C55.2014 21.297 57.0349 22.0566 58.9208 22.0566C59.8113 22.0828 60.7019 21.8732 61.5139 21.4804C62.0115 21.2184 62.5092 20.8779 62.8759 20.4588L62.8759 20.8517C62.8759 21.0613 62.9545 21.2708 63.1116 21.428C63.2688 21.5589 63.4521 21.6637 63.6617 21.6637L66.6214 21.6637C66.831 21.6637 67.0405 21.5851 67.1715 21.428C67.3287 21.2708 67.4072 21.0613 67.4072 20.8517L67.4072 7.6768C67.4072 7.46726 67.3287 7.25772 67.1977 7.10056C67.0405 6.91721 66.831 6.81244 66.6214 6.81244ZM62.614 15.6132C62.4568 16.0323 62.2211 16.399 61.9068 16.7395C61.5925 17.0538 61.2519 17.3157 60.8591 17.4991C60.0209 17.892 59.0518 17.892 58.2136 17.4991C57.8207 17.3157 57.454 17.0538 57.1397 16.7395C56.8254 16.4252 56.5896 16.0323 56.4325 15.6132C56.1182 14.7226 56.1182 13.7535 56.4325 12.863C56.5896 12.4439 56.8254 12.1034 57.1397 11.7629C57.454 11.4485 57.7945 11.1866 58.2136 11.0033C59.0518 10.6104 60.0209 10.6104 60.8329 11.0033C61.2258 11.1866 61.5925 11.4224 61.8806 11.7367C62.1687 12.051 62.4044 12.4177 62.5878 12.8368C62.9545 13.7535 62.9545 14.7226 62.614 15.6132ZM96.1144 13.8321C95.6953 13.4654 95.1977 13.1511 94.6738 12.9415C94.1238 12.7058 93.5213 12.5486 92.9451 12.4177L90.6925 11.9724C90.1163 11.8676 89.6972 11.7105 89.4877 11.5271C89.3043 11.3962 89.1734 11.1866 89.1734 10.9509C89.1734 10.7152 89.3043 10.5056 89.5924 10.3223C89.9853 10.1127 90.4044 10.008 90.8497 10.0341C91.4259 10.0341 92.0022 10.1651 92.526 10.3747C93.0499 10.6104 93.5475 10.8461 94.019 11.1604C94.6738 11.5795 95.2501 11.5009 95.643 11.0295L96.7169 9.79841C96.9264 9.58887 97.0312 9.32695 97.0574 9.03883C97.0312 8.72451 96.874 8.46259 96.6383 8.25304C96.193 7.86015 95.4596 7.44107 94.4905 7.02198C93.5214 6.6029 92.2903 6.39336 90.8497 6.39336C89.9591 6.36717 89.0948 6.49813 88.2566 6.76006C87.5494 6.99579 86.8684 7.3363 86.266 7.78157C85.7159 8.20066 85.2968 8.72451 84.9825 9.35314C84.6944 9.95557 84.5373 10.6104 84.5373 11.2652C84.5373 12.4963 84.904 13.4916 85.6373 14.225C86.3707 14.9584 87.3399 15.456 88.5447 15.6918L90.9021 16.2156C91.3997 16.2942 91.9236 16.4514 92.3951 16.6871C92.657 16.7919 92.8141 17.0538 92.8141 17.3419C92.8141 17.6038 92.6832 17.8396 92.3951 18.0491C92.1069 18.2587 91.6355 18.3896 91.0068 18.3896C90.3782 18.3896 89.7234 18.2587 89.1472 17.9705C88.5971 17.7086 88.0995 17.3681 87.628 16.9752C87.4184 16.8181 87.2089 16.6871 86.947 16.5823C86.6851 16.5037 86.3445 16.5823 86.004 16.8704L84.7206 17.8396C84.3539 18.1015 84.1706 18.5468 84.2753 18.9659C84.3539 19.4111 84.6944 19.8302 85.3492 20.3279C86.9732 21.428 88.9114 22.0042 90.8759 21.9518C91.7926 21.9518 92.7094 21.8471 93.5737 21.5851C94.3333 21.3494 95.0405 21.0089 95.6691 20.5374C96.2454 20.1183 96.7169 19.5683 97.0312 18.9135C97.3455 18.2848 97.5026 17.6038 97.5026 16.8966C97.5288 16.268 97.3979 15.6394 97.1359 15.0631C96.874 14.6441 96.5335 14.1988 96.1144 13.8321ZM109.054 17.4205C108.923 17.1848 108.687 17.0276 108.399 16.9752C108.137 16.9752 107.849 17.0538 107.639 17.2109C107.273 17.4467 106.853 17.5776 106.434 17.6038C106.303 17.6038 106.146 17.5776 106.015 17.5515C105.858 17.5253 105.727 17.4467 105.622 17.3419C105.491 17.2109 105.387 17.0538 105.308 16.8966C105.203 16.6347 105.151 16.3728 105.177 16.1109L105.177 10.7414L109.001 10.7414C109.237 10.7414 109.447 10.6366 109.604 10.4794C109.761 10.3223 109.866 10.1389 109.866 9.90318L109.866 7.62442C109.866 7.38868 109.787 7.17914 109.604 7.04818C109.447 6.89102 109.237 6.81245 109.027 6.81245L105.177 6.81245L105.177 3.14547C105.177 2.93593 105.099 2.70019 104.941 2.56923C104.784 2.43826 104.601 2.35969 104.391 2.33349L101.405 2.33349C101.196 2.33349 100.986 2.41207 100.829 2.56923C100.672 2.72638 100.567 2.93593 100.567 3.14547L100.567 6.81245L98.8647 6.81245C98.6551 6.81245 98.4456 6.89102 98.2884 7.07437C98.1575 7.23153 98.0789 7.44107 98.0789 7.65061L98.0789 9.92938C98.0789 10.1389 98.1575 10.3485 98.2884 10.5056C98.4194 10.689 98.6289 10.7675 98.8647 10.7675L100.567 10.7675L100.567 17.1586C100.541 17.9181 100.698 18.6777 101.012 19.3587C101.301 19.935 101.667 20.4326 102.165 20.8517C102.636 21.2446 103.186 21.5327 103.789 21.6899C104.391 21.8732 105.02 21.978 105.649 21.978C106.461 21.978 107.299 21.8471 108.084 21.5851C108.818 21.3494 109.473 20.9303 109.997 20.3803C110.337 20.0398 110.363 19.4897 110.101 19.0968L109.054 17.4205ZM125.241 6.81245L122.281 6.81245C122.071 6.81245 121.888 6.89103 121.731 7.04818C121.574 7.20534 121.495 7.41488 121.495 7.65061L121.495 8.01731C121.128 7.57203 120.683 7.23153 120.159 6.9958C119.347 6.60291 118.457 6.41956 117.566 6.41956C115.654 6.41956 113.847 7.17915 112.485 8.51497C111.778 9.22218 111.228 10.0603 110.861 10.9771C110.442 11.9986 110.232 13.0987 110.258 14.1988C110.232 15.2989 110.442 16.399 110.861 17.4467C111.228 18.3634 111.804 19.2016 112.485 19.9088C113.821 21.2708 115.628 22.0304 117.54 22.0304C118.431 22.0566 119.321 21.8471 120.133 21.4804C120.657 21.2184 121.128 20.8779 121.495 20.4588L121.495 20.8517C121.495 21.0613 121.574 21.2708 121.731 21.4018C121.888 21.5589 122.071 21.6375 122.281 21.6375L125.241 21.6375C125.686 21.6375 126.026 21.297 126.026 20.8517L126.026 7.6768C126.026 7.46726 125.948 7.25772 125.817 7.10057C125.686 6.91722 125.476 6.81245 125.241 6.81245ZM121.259 15.6132C121.102 16.0323 120.867 16.399 120.552 16.7395C120.238 17.0538 119.897 17.3157 119.504 17.4991C119.085 17.6824 118.64 17.7872 118.169 17.7872C117.697 17.7872 117.278 17.6824 116.859 17.4991C116.466 17.3157 116.099 17.0538 115.785 16.7395C115.471 16.4252 115.235 16.0323 115.104 15.6132C114.79 14.7226 114.79 13.7535 115.104 12.863C115.261 12.4439 115.497 12.0772 115.785 11.7629C116.099 11.4486 116.466 11.1866 116.859 11.0033C117.278 10.8199 117.723 10.7152 118.169 10.7152C118.614 10.7152 119.059 10.7937 119.505 11.0033C119.897 11.1866 120.238 11.4224 120.552 11.7367C120.867 12.051 121.102 12.4177 121.259 12.8368C121.6 13.7273 121.6 14.7226 121.259 15.6132ZM141.48 17.2109L139.778 15.9013C139.463 15.6394 139.149 15.5608 138.887 15.6656C138.651 15.7703 138.442 15.9275 138.258 16.1109C137.892 16.5561 137.446 16.949 136.975 17.2895C136.451 17.5776 135.901 17.7348 135.325 17.6824C134.644 17.6824 134.015 17.4991 133.465 17.1062C132.915 16.7133 132.496 16.1894 132.287 15.5346C132.129 15.0893 132.051 14.6441 132.051 14.1988C132.051 13.7273 132.129 13.282 132.287 12.8106C132.444 12.3915 132.653 12.0248 132.968 11.7105C133.282 11.3962 133.622 11.1342 134.015 10.9771C134.434 10.7937 134.88 10.689 135.351 10.689C135.927 10.6628 136.504 10.8199 137.001 11.1081C137.499 11.4224 137.918 11.8153 138.285 12.2867C138.442 12.4701 138.651 12.6272 138.887 12.732C139.149 12.8368 139.463 12.7582 139.778 12.4963L141.48 11.2128C141.69 11.0819 141.847 10.8723 141.925 10.6366C142.03 10.3747 142.004 10.0865 141.847 9.85081C141.192 8.82929 140.301 7.99112 139.228 7.38869C138.101 6.76006 136.765 6.41956 135.272 6.41956C134.225 6.41956 133.177 6.6291 132.182 7.02199C131.239 7.41488 130.401 7.96493 129.693 8.67213C128.986 9.37933 128.41 10.2175 128.017 11.1604C127.205 13.1249 127.205 15.3251 128.017 17.2895C128.41 18.2063 128.96 19.0706 129.693 19.7516C131.186 21.2184 133.177 22.0042 135.272 22.0042C136.765 22.0042 138.101 21.6637 139.228 21.0351C140.301 20.4326 141.218 19.5945 141.873 18.5468C142.004 18.311 142.03 18.0229 141.952 17.7872C141.847 17.5776 141.69 17.3681 141.48 17.2109ZM157.248 20.2755L152.56 13.413L156.567 8.12209C156.751 7.88635 156.829 7.54585 156.724 7.25773C156.646 7.04819 156.462 6.83864 155.965 6.83864L152.795 6.83864C152.612 6.83864 152.429 6.89103 152.272 6.96961C152.062 7.07438 151.905 7.23153 151.8 7.41488L148.605 11.8938L147.845 11.8938L147.845 1.31198C147.845 1.10244 147.766 0.892899 147.609 0.735743C147.452 0.578586 147.269 0.50001 147.059 0.50001L144.099 0.50001C143.89 0.50001 143.68 0.578586 143.523 0.735742C143.366 0.892898 143.287 1.07625 143.287 1.31198L143.287 20.8255C143.287 21.0613 143.366 21.2446 143.523 21.4018C143.68 21.5589 143.89 21.6375 144.099 21.6375L147.059 21.6375C147.269 21.6375 147.478 21.5589 147.609 21.4018C147.766 21.2446 147.845 21.0351 147.845 20.8255L147.845 15.6656L148.683 15.6656L152.167 21.0089C152.376 21.4018 152.769 21.6375 153.188 21.6375L156.515 21.6375C157.012 21.6375 157.222 21.4018 157.327 21.1922C157.458 20.8779 157.432 20.5374 157.248 20.2755ZM83.4372 6.81245L80.1107 6.81244C79.8488 6.81244 79.613 6.89102 79.4297 7.07437C79.2725 7.23153 79.1678 7.41487 79.1154 7.62442L76.6533 16.7395L76.0508 16.7395L73.4316 7.62442C73.3792 7.44107 73.3006 7.25772 73.1696 7.07437C73.0125 6.89102 72.8029 6.78625 72.5672 6.78625L69.1883 6.78625C68.7431 6.78625 68.4811 6.91721 68.3502 7.23152C68.2716 7.49345 68.2716 7.78157 68.3502 8.0435L72.541 20.8779C72.6196 21.0613 72.6982 21.2708 72.8553 21.4018C73.0125 21.5589 73.2482 21.6375 73.4839 21.6375L75.265 21.6375L75.1079 22.0566L74.715 23.2353C74.584 23.602 74.3745 23.9163 74.0602 24.152C73.7721 24.3615 73.4316 24.4925 73.0649 24.4663C72.7505 24.4663 72.4624 24.3877 72.1743 24.283C71.8862 24.152 71.6243 23.9949 71.3885 23.8115C71.179 23.6543 70.9171 23.5758 70.6289 23.5758L70.6027 23.5758C70.2884 23.602 70.0003 23.7591 69.8431 24.0472L68.7954 25.5926C68.3764 26.2736 68.6121 26.6927 68.874 26.9284C69.4503 27.4523 70.1051 27.8452 70.8385 28.0809C71.6504 28.369 72.4886 28.5 73.3268 28.5C74.846 28.5 76.1032 28.0809 77.0723 27.2689C78.0677 26.3784 78.8272 25.2259 79.1939 23.9163L84.0658 8.0435C84.1706 7.75538 84.1967 7.46726 84.092 7.20534C84.0658 7.02199 83.8824 6.81245 83.4372 6.81245Z"
                      fill="#0A212E"
                    />
                  </svg>