 <svg
                      viewBox="0 0 104 29"
                      fill="none"
                      xmlns="http://www.w3.org/2000/svg"
                      height='29'
                      width='104'
                    >
                      <g clip-path="url(#clip0_0_156)">
                        <path
                          fill-rule="evenodd"
                          clip-rule="evenodd"
                          d="M93.9667 24.5094C90.8701 24.745 88.2978 22.7604 88.2978 19.2963C88.2978 15.8359 90.8648 13.8908 93.9567 14.117C100.356 14.585 100.364 24.0229 93.9667 24.5094ZM103.835 11.4764H103.834V11.1141C103.834 10.9226 103.672 10.7675 103.472 10.7675H99.756C99.5567 10.7675 99.3945 10.9226 99.3945 11.1141V11.464L99.3972 11.4658H99.3945V11.5509C99.3767 11.7201 99.1701 11.7736 99.0457 11.6533C98.3182 10.949 95.9134 10.2972 93.7211 10.2972C88.4818 10.2623 84.3712 13.3668 84.3712 19.2963C84.3712 25.3304 88.2998 28.4694 93.6119 28.435C95.5904 28.4003 97.8608 28.1634 99.3945 26.2024V28.1469C99.3945 28.3382 99.5567 28.4933 99.756 28.4933H103.472C103.672 28.4933 103.834 28.3382 103.834 28.1469V27.4862L103.835 26.8977V11.4764Z"
                          fill="#0A212E"
                        />
                        <path
                          fill-rule="evenodd"
                          clip-rule="evenodd"
                          d="M17.9203 20.8308C18.2112 22.9584 20.1397 24.4934 23.2683 24.4934C24.9054 24.4934 27.0519 23.9002 28.0707 22.889L30.9085 25.5745C29.0167 27.458 25.9241 28.3649 23.1954 28.3649C17.0105 28.3649 13.3359 24.7025 13.3359 19.1914C13.3359 13.9596 17.0471 10.1926 22.8681 10.1926C28.8712 10.1926 32.6183 13.7504 31.9273 20.8308H17.9203ZM27.6705 17.3079C27.3795 15.0757 25.5605 13.9596 23.0137 13.9596C20.6124 13.9596 18.6477 15.0757 17.9929 17.3079H27.6705Z"
                          fill="#0A212E"
                        />
                        <mask
                          id="mask0_0_156"
                          style="mask-type: alpha"
                          maskUnits="userSpaceOnUse"
                          x="0"
                          y="10"
                          width="15"
                          height="19"
                        >
                          <path
                            d="M7.05805 28.4999H0V10.8507H14.1161V28.4999H7.05805Z"
                            fill="white"
                          />
                        </mask>
                        <g mask="url(#mask0_0_156)">
                          <path
                            fill-rule="evenodd"
                            clip-rule="evenodd"
                            d="M9.49584 10.8507C7.67696 10.8507 5.821 11.1648 4.43879 13.2924V11.6105C4.43879 11.4192 4.27698 11.2641 4.07733 11.2641H0.361619C0.161969 11.2641 0 11.4192 0 11.6105V12.634V13.2725V13.8389V15.5091V25.0667V25.9649L0.00425434 25.9695L0 25.9718V27.2323V28.1533C0 28.3447 0.161969 28.4999 0.361619 28.4999H4.07733C4.27698 28.4999 4.43879 28.3447 4.43879 28.1533V26.3594C4.43879 26.2724 4.44928 26.19 4.43879 26.1062V23.4372V19.4311C4.43879 16.2574 6.58511 15.0713 8.9136 15.0713C10.3687 15.0713 11.2056 15.4549 12.1155 16.1872L14.1162 12.4901C13.1341 11.5484 11.3511 10.8507 9.49584 10.8507Z"
                            fill="#0A212E"
                          />
                        </g>
                        <mask
                          id="mask1_0_156"
                          style="mask-type: alpha"
                          maskUnits="userSpaceOnUse"
                          x="64"
                          y="11"
                          width="5"
                          height="18"
                        >
                          <path
                            d="M64.5196 28.5002H68.9616V11.2349H64.5196V28.5002Z"
                            fill="white"
                          />
                        </mask>
                        <g mask="url(#mask1_0_156)">
                          <path
                            fill-rule="evenodd"
                            clip-rule="evenodd"
                            d="M68.9616 26.3341V19.2921H68.9596V11.5812C68.9596 11.39 68.7981 11.2349 68.5982 11.2349H64.8828C64.6831 11.2349 64.5209 11.39 64.5209 11.5812V23.0841C64.5209 23.0901 64.5228 23.0959 64.5231 23.1019V25.9652L64.529 25.9722H64.5209V26.34C64.5205 26.35 64.5196 26.3604 64.5196 26.3709C64.5196 26.3812 64.5205 26.3915 64.5209 26.4018V28.1536C64.5209 28.345 64.6831 28.5003 64.8828 28.5003H68.5982C68.7981 28.5003 68.9596 28.345 68.9596 28.1536V26.4025C68.9603 26.3918 68.9616 26.3813 68.9616 26.3709C68.9616 26.3604 68.9603 26.35 68.9596 26.3398V26.3343L68.9616 26.3341Z"
                            fill="#0A212E"
                          />
                        </g>
                        <path
                          fill-rule="evenodd"
                          clip-rule="evenodd"
                          d="M54.2409 11.0605C51.9125 11.0605 49.8387 11.7578 48.2379 14.1995C47.2191 11.8276 45.0726 10.9907 42.9261 10.9907C41.2161 10.9907 39.1424 11.6184 38.1967 13.3624V11.6109C38.1967 11.4195 38.0348 11.2644 37.8351 11.2644H34.1194C33.9197 11.2644 33.7579 11.4195 33.7579 11.6109V13.8044V15.5096V24.2482V25.9654V28.1469C33.7579 28.3382 33.9197 28.4934 34.1194 28.4934H37.8351C38.0348 28.4934 38.1967 28.3382 38.1967 28.1469V25.9654V19.2922C38.1967 17.0248 39.6155 14.967 42.0166 14.967C44.4541 14.967 45.6912 17.0248 45.6912 19.2922V25.9654L45.7026 25.9785V28.1537C45.7026 28.3451 45.8644 28.5002 46.064 28.5002H49.7797C49.9794 28.5002 50.1413 28.3451 50.1413 28.1537V23.4376H50.1296V19.2922C50.1296 17.0248 51.6212 15.0367 54.0225 15.0367C56.4236 15.0367 57.4061 16.9551 57.4061 19.2221V24.2482H57.4058V28.1469C57.4058 28.3382 57.5678 28.4934 57.7672 28.4934H61.4829C61.6828 28.4934 61.8445 28.3382 61.8445 28.1469V25.9654V24.2482V19.2221C61.8445 14.0601 59.3342 11.0605 54.2409 11.0605Z"
                          fill="#0A212E"
                        />
                        <path
                          fill-rule="evenodd"
                          clip-rule="evenodd"
                          d="M50.1124 7.68149C49.2199 8.54572 47.7728 8.54572 46.8803 7.68149C45.9878 6.81726 45.9878 5.41604 46.8803 4.55182C47.7728 3.6876 49.2199 3.6876 50.1124 4.55182C51.0048 5.41604 51.0048 6.81726 50.1124 7.68149Z"
                          fill="#0A212E"
                        />
                        <path
                          fill-rule="evenodd"
                          clip-rule="evenodd"
                          d="M59.3113 7.47008C58.1276 8.61635 56.2083 8.61635 55.0245 7.47008C53.8409 6.32381 53.8409 4.46531 55.0245 3.31905C56.2083 2.17295 58.1276 2.17295 59.3113 3.31905C60.4951 4.46531 60.4951 6.32381 59.3113 7.47008Z"
                          fill="#0A212E"
                        />
                        <path
                          fill-rule="evenodd"
                          clip-rule="evenodd"
                          d="M69.7413 7.18306C68.1625 8.71188 65.603 8.71188 64.0238 7.18306C62.4452 5.6543 62.4452 3.17552 64.0238 1.64659C65.603 0.117803 68.1625 0.117803 69.7413 1.64659C71.3206 3.17552 71.3206 5.6543 69.7413 7.18306Z"
                          fill="#0A212E"
                        />
                        <path
                          fill-rule="evenodd"
                          clip-rule="evenodd"
                          d="M83.332 23.8037C83.332 23.8037 82.5132 24.0607 81.9889 24.1871C81.4653 24.3142 81.0172 24.3778 80.6465 24.3778C80.3625 24.3778 80.0951 24.346 79.8442 24.2827C79.5927 24.219 79.3696 24.1031 79.1724 23.9339C78.9758 23.7648 78.8176 23.5322 78.6977 23.2361C78.5773 22.9402 78.5177 22.5596 78.5177 22.0944V12.8464H83.0831C83.281 12.8464 83.4405 12.6895 83.4405 12.4963V8.89835C83.4405 8.70506 83.281 8.54819 83.0831 8.54819H78.5177V3.26962H76.978C76.6292 5.19359 75.9792 6.75798 75.0299 7.96297C74.0801 9.16835 72.8403 10.0775 71.3125 10.6904V12.7518H73.8014V21.7774C73.8014 22.919 73.9053 23.913 74.1125 24.7581C74.3197 25.604 74.6533 26.3018 75.1114 26.8514C75.5701 27.4014 76.1811 27.8081 76.9456 28.0723C77.7095 28.3362 79.1664 28.4899 80.2798 28.4688C82.9183 28.4186 83.9813 27.728 84.4619 27.4314L83.332 23.8037Z"
                          fill="#0A212E"
                        />
                      </g>
                      <defs>
                        <clipPath id="clip0_0_156">
                          <rect
                            width="103.858"
                            height="28"
                            fill="white"
                            transform="translate(0 0.5)"
                          />
                        </clipPath>
                      </defs>
                    </svg>