  <svg
                      class="aspect-square"
                      viewBox="0 0 28 29"
                      fill="none"
                      height='29'
                      width='28'
                      xmlns="http://www.w3.org/2000/svg"
                    >
                      <path
                        fill-rule="evenodd"
                        clip-rule="evenodd"
                        d="M7.68367 21.0747L7.21578 17.2851C5.97699 16.4043 5.02263 15.6793 3.87564 14.8443C3.33411 10.8525 4.33438 8.68697 5.80254 6.63153C7.62862 4.30996 10.5649 2.57568 14.0794 2.57568C17.594 2.61229 20.5394 4.38332 22.2739 6.70488C23.8979 8.90719 24.7697 11.6783 24.1364 14.9544L20.9707 17.2851L20.5026 21.0747H15.4835C15.1715 21.3227 14.7495 21.5519 14.0794 21.5703C13.4187 21.5519 13.0058 21.3227 12.6663 21.0747H7.68367Z"
                        fill="#0A212E"
                      />
                      <path
                        fill-rule="evenodd"
                        clip-rule="evenodd"
                        d="M14.0806 15.8168C13.8145 12.2839 13.7411 7.92521 13.5209 4.42921C13.1447 4.3374 12.6124 4.365 12.172 4.43836C11.7315 4.57607 11.4104 4.69533 11.0341 4.90639C11.7224 8.26484 12.5208 12.5409 13.1998 15.8719C12.2731 12.6327 11.0341 8.57686 10.1167 5.34682C9.67624 5.43863 9.24496 5.6863 8.93309 5.94327C8.60276 6.20024 8.41 6.393 8.10713 6.85173C9.43758 9.69639 11.0341 13.3209 12.374 16.1472C10.8231 13.5778 8.94195 10.1919 7.38199 7.64094C7.07926 7.90706 6.84975 8.09982 6.54688 8.61361C6.28991 9.02659 6.1615 9.51292 6.10645 9.98095C7.81327 12.064 9.85027 14.5599 11.5662 16.6335C9.77706 14.9084 7.5746 12.6878 5.80372 10.9626C5.62941 11.3113 5.5193 11.605 5.46425 12.183C5.40004 12.7427 5.51015 13.4125 5.62941 13.8163L9.08881 16.3857L9.45588 19.2395L13.2641 19.2669C13.5393 19.5881 13.631 19.7533 14.0807 19.7807C14.5119 19.7533 14.7598 19.4871 14.8699 19.2669H18.6687L19.0539 16.404L22.486 13.8529C22.6142 13.4309 22.6967 12.7793 22.6511 12.2196C22.5961 11.614 22.486 11.3111 22.3391 10.9899C20.5591 12.7059 18.3475 14.9267 16.5766 16.6516C18.3016 14.5962 20.3204 12.091 22.0454 9.98981C21.9537 9.52193 21.8436 9.0446 21.5682 8.63176C21.247 8.11783 21.0634 7.92521 20.7699 7.64994C19.2009 10.1917 17.2922 13.6054 15.7413 16.1562C17.118 13.3208 18.6778 9.69624 20.0268 6.88848C19.7333 6.43875 19.5221 6.20939 19.2285 5.97087C18.8799 5.70475 18.4486 5.45708 18.0265 5.35612C17.0629 8.57686 15.8793 12.6695 14.9433 15.881C15.5946 12.55 16.4114 8.31074 17.0629 4.96159C16.7328 4.72293 16.4116 4.60367 15.98 4.47526C15.4847 4.38345 14.9983 4.36515 14.6128 4.42935C14.356 7.95281 14.3465 12.3024 14.0806 15.8168Z"
                        fill="#004267"
                      />
                      <path
                        fill-rule="evenodd"
                        clip-rule="evenodd"
                        d="M3.5625 25.1125H5.34268C5.31522 25.5072 5.50799 25.5989 5.59979 25.6632C5.7006 25.6998 6.44405 25.7364 6.81098 25.6722C6.95784 25.6448 7.0954 25.5897 7.0954 25.14C7.0954 24.9474 7.0495 24.7363 6.82928 24.6903C6.04923 24.6262 5.28762 24.7087 4.50772 24.6352C3.72766 24.461 3.60855 24.259 3.5625 23.6442C3.61755 22.7908 3.92042 22.5432 4.79214 22.5156C5.70039 22.4881 6.60927 22.4881 7.51753 22.5156C8.4443 22.5156 8.72872 22.8736 8.72872 23.6535H7.0954C7.0954 23.268 7.02204 23.1213 6.82928 23.1028C6.43213 23.0754 6.03355 23.0754 5.6364 23.1028C5.48954 23.1028 5.29692 23.1763 5.29692 23.525C5.29692 23.8552 5.37943 23.9378 5.59979 23.9656C6.26959 23.9929 6.94869 24.0022 7.60934 24.0478C8.71042 24.1121 8.74717 24.5985 8.78377 25.1122C8.80208 25.8465 8.53596 26.1032 8.34334 26.2228C8.15988 26.3053 7.26972 26.4064 7.0954 26.4064H5.33367C4.939 26.4064 4.44351 26.3605 4.01223 26.2319C3.6084 26.122 3.5625 25.5806 3.5625 25.1125ZM20.2908 26.4247H21.8506V22.5341H20.2908V26.4247ZM22.8966 26.4247H24.4383V22.5341H22.8966V26.4247ZM19.3823 24.3875C19.3539 24.2658 19.317 24.1463 19.2719 24.0298C19.0058 23.5985 18.0883 23.5985 17.1983 23.58C16.5285 23.58 15.5284 23.5985 15.2347 23.8828C15.1153 24.0113 15.0511 24.1948 15.0145 24.3875C14.9686 24.6171 14.9776 24.8554 14.9776 24.9657C14.9776 25.1674 14.996 25.9474 15.3722 26.1493C15.7209 26.3788 16.7761 26.4064 17.1797 26.4064C17.611 26.4064 18.804 26.3605 18.9785 26.1584C19.2902 26.0483 19.3637 25.6631 19.4279 25.3604H17.8956C17.8956 25.6631 17.6569 25.8467 17.1797 25.8188C16.7485 25.8465 16.5008 25.7456 16.5008 25.2043L19.4278 25.2134C19.4279 24.9474 19.4374 24.6628 19.3823 24.3875ZM17.8956 24.6537H16.5008C16.5008 24.5435 16.5192 24.4516 16.5467 24.3875C16.6474 24.1399 16.9045 24.1307 17.1796 24.1123C17.6017 24.1123 17.7853 24.2132 17.8588 24.3875C17.8956 24.461 17.9047 24.5527 17.8956 24.6537ZM9.70139 26.4247H11.2246V24.7729C11.2614 24.5437 11.3164 24.3601 11.8761 24.3601C12.4082 24.3511 12.555 24.4976 12.555 24.7729V26.4247H14.0783V24.7729C14.0783 24.2315 14.0693 23.938 13.7205 23.7822C13.4085 23.5802 12.9587 23.6078 12.5367 23.6078C12.0963 23.6078 11.6008 23.6628 11.2246 23.8464V22.5343H9.70139V26.4247Z"
                        fill="#0A212E"
                      />
                    </svg>